<?xml version="1.0" encoding="utf-8"?>
<!-- Generator: Adobe Illustrator 15.1.0, SVG Export Plug-In . SVG Version: 6.00 Build 0)  -->
<!DOCTYPE svg PUBLIC "-//W3C//DTD SVG 1.1//EN" "http://www.w3.org/Graphics/SVG/1.1/DTD/svg11.dtd">
<svg version="1.1" id="Layer_1" xmlns="http://www.w3.org/2000/svg" xmlns:xlink="http://www.w3.org/1999/xlink" x="0px" y="0px"
	 width="595.28px" height="841.89px" viewBox="0 0 595.28 841.89" enable-background="new 0 0 595.28 841.89" xml:space="preserve">
<path fill-rule="evenodd" clip-rule="evenodd" d="M230.679,556.898c0,0,7.821-79.278,9.321-101.588
	c1.5-22.311-9.321-105.032-7.632-110.663s13.842-50.966,15.201-52.922s13.985-20.984,17.453-20.831s70.967,17.423,70.938,22.52
	s-0.375,128.972,0.563,132.868s3.652,99.979,2.814,110.348S230.679,556.898,230.679,556.898z"/>
<path fill-rule="evenodd" clip-rule="evenodd" d="M363.488,546.265c0,0-4.963-160.827-8.726-161.796
	c0,0,37.755-29.194,40.536-29.839s50.141,15.525,50.67,15.764s-1.775,142.45,3.378,172.278S363.488,546.265,363.488,546.265z"/>
<path fill-rule="evenodd" clip-rule="evenodd" d="M219.643,565.755c0,0-7.361-159.659-2.252-162.707c0,0-58.286-12.654-61.93-9.008
	c0,0-14.115,12.111-14.184,19.857s1.017,53.143,0,65.905s0.672,82.575,0.672,82.575L219.643,565.755z"/>
</svg>
